<svg xmlns="http://www.w3.org/2000/svg" viewBox="0 0 16 16"><defs><style>.cls-1,.cls-6{isolation:isolate;}.cls-2{fill:#56cbef;}.cls-2,.cls-4{mix-blend-mode:screen;}.cls-3{fill:#b2f7f5;}.cls-5{fill:#8abb4d;}.cls-6{fill:#9bcd5b;}.cls-7{fill:#fff;}</style></defs><g class="cls-1"><g id="레이어_1" data-name="레이어 1"><rect class="cls-2" x="2" y="2" width="12" height="12" rx="2"/><path class="cls-3" d="M4.25,3H4A1,1,0,0,0,3,4V4.25a1,1,0,0,0,1.712.709l.247-.247A1,1,0,0,0,4.25,3Z"/><path class="cls-3" d="M8.422,13H12a1,1,0,0,0,1-1V8.422a1,1,0,0,0-1.712-.71L7.712,11.288A1,1,0,0,0,8.422,13Z"/><g class="cls-4"><path class="cls-5" d="M5.151,7.194l-.044-.045-.029-.031-.063-.071-.03-.035-.038-.046-.033-.042-.035-.046-.047-.063-.04-.058-.034-.051-.029-.043L4.7,6.608l-.026-.043c-.02-.034-.04-.07-.06-.106l-.022-.04-.035-.066-.02-.04c-.04-.079-.078-.161-.114-.247L4.4,6.032C4.392,6,4.38,5.976,4.369,5.947l-.01-.026c-.024-.064-.048-.13-.071-.2h0l-.033-.1-.008-.027c-.034-.11-.066-.225-.1-.346l0-.008c-.01-.041-.02-.082-.029-.124l0-.009c-.028-.128-.053-.263-.076-.4v0c-.015-.095-.03-.192-.042-.292l.061-.014.016,0,.017,0,.038-.008h.006a4.2,4.2,0,0,1,.76-.069c.111,0,.23.006.352.016l.032,0,.087.01.048.006.083.012.055.009.081.016.06.012.079.018.063.017.078.021.067.022.074.024c.035.012.07.026.1.04s.064.026.1.04l.075.033.069.035.07.037.069.04.069.041.068.046.066.046.068.051c.021.016.042.034.062.051s.045.037.067.057L7,5.068c.022.021.044.042.065.064l.053.058c.021.023.043.045.063.069A3.728,3.728,0,0,1,7.8,6.268v0c.032.078.06.156.084.231l0,.009c.024.073.044.145.062.216l0,.013c.017.069.031.135.042.2l0,.019c.005.03.01.06.014.09v0c0,.031.008.06.011.089l0,.022.006.069,0,.017c0,.026,0,.051,0,.076v.026l0,.052v.185l0,.047v0l.022.045c.019.038.039.078.055.119L8.2,7.98l.028.079c.014.04.029.08.042.118.007.018.012.036.018.054a2.7,2.7,0,0,1,.275-.808v0c.011-.021.023-.042.035-.063l0,0c.011-.021.024-.041.036-.062l0,0c.012-.02.025-.04.038-.06l0-.007c.013-.019.027-.038.04-.058l.006-.008L8.767,7.1l.007-.009c.014-.019.028-.037.043-.055l.008-.01.046-.054.009-.01.048-.052.01-.01.051-.052L9,6.838l.055-.052.008-.007.06-.052,0,0a2.312,2.312,0,0,1,.28-.2l.023-.015.048-.028.04-.024.045-.024.048-.025.043-.021.054-.026.043-.019.059-.026L9.85,6.3l.065-.026.042-.015.07-.024.041-.014.075-.023.041-.012.08-.022.042-.01.085-.02.041-.009c.03-.006.06-.013.091-.018l.04-.008.1-.016.039-.006.105-.014.037,0,.113-.011.034,0,.123-.009.03,0,.134-.006H11.3l.149,0h.1l.141,0,.085,0c.073,0,.148.006.224.012a2.976,2.976,0,0,1-1.339,2.527c-.042.024-.083.046-.124.067l-.027.014-.1.047-.031.015-.09.04-.029.013-.094.038-.022.008-.108.039-.005,0c-.078.026-.154.048-.227.067l-.011,0c-.032.008-.064.016-.1.022l-.022,0q-.04.009-.081.015l-.025,0L9.5,8.975l-.022,0-.086.01H9.38C9.316,8.995,9.254,9,9.194,9H9.062L9.018,9l-.05,0-.065,0-.054-.005-.041,0L8.77,8.975l-.04-.006L8.7,8.963l-.037-.007-.032-.007-.034-.007-.03-.007-.031-.008L8.5,8.919l-.028-.007L8.449,8.9h0l.023.138c.01.058.017.114.023.169l.006.059.008.072c.006.049.012.1.015.153s.005.1.008.143c.007.094.013.192.012.284v.05c0,.123,0,.24,0,.352l0,.09c0,.095-.006.185-.014.27-.009.109-.017.209-.025.3l-.029.228c-.013.106-.021.174-.024.194l0,.014a.315.315,0,0,1-.31.268.388.388,0,0,1-.048,0,.315.315,0,0,1-.263-.363l.034-.223c.009-.055.018-.12.029-.186.009-.086.02-.182.033-.291.01-.072.015-.152.021-.236l.007-.1c.01-.1.013-.21.015-.325l0-.049c0-.083,0-.169,0-.26,0-.046,0-.092,0-.136s0-.081-.007-.122,0-.054-.006-.079l0-.05c0-.052-.008-.1-.015-.152l-.025-.205L7.884,8.79,7.87,8.707c-.009-.059-.022-.116-.037-.176l0-.012-.015-.065c-.01-.043-.019-.083-.032-.124-.018-.061-.035-.121-.053-.18l-.016-.044L7.7,8.052H7.688l-.065.006H7.6l-.049,0H7.518l-.057,0H7.342a3.391,3.391,0,0,1-.627-.057h0C6.633,8,6.549,7.98,6.465,7.957h0c-.055-.015-.11-.032-.166-.051l-.01,0-.078-.027-.005,0q-.042-.015-.084-.033l-.006,0-.075-.032L6.02,7.8c-.054-.024-.108-.05-.162-.079l-.017-.009c-.022-.011-.044-.023-.065-.036l-.018-.01c-.027-.015-.053-.031-.079-.047l-.01-.007L5.6,7.567l-.023-.015-.06-.042L5.5,7.5,5.425,7.44,5.4,7.421,5.35,7.378l-.028-.023L5.264,7.3l-.027-.026L5.18,7.224Z"/><path class="cls-6" d="M7.766,7.581l0,0a.092.092,0,0,1-.038.124.091.091,0,0,1-.124-.038l-.08-.153c-.026-.048-.057-.107-.094-.171s-.078-.139-.128-.217-.1-.165-.162-.252-.125-.18-.193-.274c-.033-.047-.072-.092-.108-.139s-.074-.095-.114-.141l-.12-.141-.126-.137C6.441,6,6.4,5.959,6.353,5.914s-.087-.087-.133-.129c-.088-.084-.179-.163-.267-.239s-.176-.147-.262-.212-.165-.125-.243-.178-.147-.1-.211-.143-.12-.078-.167-.106l-.146-.09.15.083c.049.025.106.059.172.1s.139.083.218.134.164.107.253.168.179.129.273.2.188.148.281.23c.047.039.094.082.139.124s.094.084.138.129l.133.133c.044.046.087.091.129.137s.083.091.122.137.08.09.116.137c.075.092.147.181.209.269s.123.172.177.25.1.152.142.217.076.122.1.17c.056.094.087.148.087.148Z"/><path class="cls-6" d="M8.64,8.488A.081.081,0,0,1,8.5,8.4l.086-.145.045-.076.06-.089c.043-.064.091-.136.149-.209.029-.036.059-.075.089-.115l.1-.117c.068-.083.151-.159.231-.243s.173-.163.27-.236.2-.149.3-.22.207-.135.315-.191.215-.11.319-.159c.052-.024.106-.044.157-.065s.1-.042.153-.058l.145-.049c.047-.016.094-.027.139-.039s.086-.025.127-.035l.116-.025c.074-.016.137-.029.191-.036l.166-.025-.165.032c-.053.008-.115.024-.188.043l-.114.029-.126.04c-.044.015-.09.027-.136.045l-.142.054c-.05.018-.1.041-.148.063s-.1.045-.153.071c-.1.054-.206.106-.307.17s-.2.131-.3.2-.193.147-.281.227-.173.163-.254.241-.153.162-.216.245l-.094.118-.081.115c-.054.073-.1.143-.135.2-.018.031-.036.059-.053.086l-.042.078-.08.149Z"/></g><rect class="cls-7" x="10" y="2" width="2" height="2" rx="0.5" transform="translate(5.343 -6.899) rotate(45)"/><rect class="cls-7" x="2.617" y="8.594" width="2.797" height="2.797" rx="0.5" transform="translate(8.242 0.088) rotate(45)"/></g></g></svg>